<svg xmlns="http://www.w3.org/2000/svg" xmlns:xlink="http://www.w3.org/1999/xlink" width="101.01" height="108.133" viewBox="0 0 101.01 108.133"><defs><style>.a,.d{fill:none;}.b{clip-path:url(#a);}.c{fill:#525c6a;}.d{stroke:#525c6a;stroke-miterlimit:10;stroke-width:2px;stroke-dasharray:5 5;}.e{fill:#00a99d;}</style><clipPath id="a"><rect class="a" width="101.01" height="108.133"/></clipPath></defs><g class="b"><path class="c" d="M43.723,117.755A21.862,21.862,0,1,1,21.861,95.926a21.845,21.845,0,0,1,21.862,21.829" transform="translate(0.001 -65.811)"/><line class="d" x1="54.709" y2="29.825" transform="translate(11.931 3.139)"/><line class="d" x1="51.25" y2="38.301" transform="translate(36.456 30.138)"/><path class="c" d="M51.834,106.692l55.636,29.581L78.708,175.118,27.016,142.475Z" transform="translate(-18.522 -73.197)"/><path class="e" d="M220.638,17.583A17.611,17.611,0,1,1,203.027,0a17.6,17.6,0,0,1,17.611,17.584" transform="translate(-127.118 0.001)"/><path class="e" d="M215.327,214.176a24.273,24.273,0,0,1-24.291,24.254c-13.416,0-24.291-10.022-24.291-24.254a24.291,24.291,0,0,1,48.582,0" transform="translate(-114.317 -130.297)"/></g></svg>