<svg xmlns="http://www.w3.org/2000/svg" xmlns:xlink="http://www.w3.org/1999/xlink" width="69.258" height="74.254" viewBox="0 0 69.258 74.254"><defs><style>.a,.d{fill:none;}.b{clip-path:url(#a);}.c{fill:#525c6a;}.d{stroke:#525c6a;stroke-miterlimit:10;stroke-width:2px;stroke-dasharray:5 5;}.e{fill:#00a99d;}</style><clipPath id="a"><rect class="a" width="69.258" height="74.254"/></clipPath></defs><g class="b"><path class="c" d="M29.979,110.916a14.99,14.99,0,1,1-14.99-14.99,14.99,14.99,0,0,1,14.99,14.99" transform="translate(0.001 -75.246)"/><line class="d" x1="37.512" y2="20.48" transform="translate(8.181 2.156)"/><line class="d" x1="35.14" y2="26.301" transform="translate(24.996 20.696)"/><path class="c" d="M44.032,106.692l38.147,20.313L62.459,153.68,27.016,131.264Z" transform="translate(-21.192 -83.691)"/><path class="e" d="M209.566,12.074A12.075,12.075,0,1,1,197.491,0a12.075,12.075,0,0,1,12.075,12.075" transform="translate(-145.443 0.001)"/><path class="e" d="M200.055,206.577A16.655,16.655,0,0,1,183.4,223.232a16.3,16.3,0,0,1-16.655-16.655,16.655,16.655,0,0,1,33.31,0" transform="translate(-130.797 -148.978)"/></g></svg>